<?xml version="1.0" encoding="UTF-8" standalone="no"?>
<!DOCTYPE svg PUBLIC "-//W3C//DTD SVG 1.1//EN" "http://www.w3.org/Graphics/SVG/1.1/DTD/svg11.dtd">
<svg width="100%" height="100%" viewBox="0 0 48 48" version="1.1" xmlns="http://www.w3.org/2000/svg" xmlns:xlink="http://www.w3.org/1999/xlink" xml:space="preserve" xmlns:serif="http://www.serif.com/" style="fill-rule:evenodd;clip-rule:evenodd;stroke-linejoin:round;stroke-miterlimit:1.5;">
    <g transform="matrix(1,0,0,1,0.103895,-0.933974)">
        <path d="M3.879,37.169C3.879,37.169 17.553,37.589 24.762,26.667C31.289,16.777 34.775,14.408 43.913,14.719" style="fill:none;stroke:black;stroke-width:2px;"/>
        <path d="M36.225,9.697L43.913,14.685" style="fill:none;stroke:black;stroke-width:2px;"/>
        <g transform="matrix(1,0,0,-1,0,29.3693)">
            <path d="M36.225,9.697L43.913,14.685" style="fill:none;stroke:black;stroke-width:2px;"/>
        </g>
        <g transform="matrix(1,0,0,-1,0,49.8679)">
            <path d="M3.879,37.169C3.879,37.169 17.553,37.589 24.762,26.667C31.289,16.777 34.775,14.408 43.913,14.719" style="fill:none;stroke:black;stroke-width:2px;"/>
        </g>
        <g transform="matrix(1,0,0,-1,0,49.8679)">
            <path d="M36.225,9.697L43.913,14.685" style="fill:none;stroke:black;stroke-width:2px;"/>
        </g>
        <g transform="matrix(1,0,0,1,0,20.4987)">
            <path d="M36.225,9.697L43.913,14.685" style="fill:none;stroke:black;stroke-width:2px;"/>
        </g>
    </g>
</svg>
